<svg height="511pt" viewBox="0 0 511 511.99954" width="511pt" xmlns="http://www.w3.org/2000/svg"><path d="m418.488281 221.703125c.253907-4.160156.382813-8.339844.382813-12.523437 0-75.429688-41.113282-145.515626-106.988282-182.328126-139.421874-77.902343-311.382812 23.039063-311.382812 182.710938 0 28.683594 5.792969 56.5625 17.207031 82.871094 1.773438 4.078125 6.519531 5.953125 10.601563 4.179687 4.089844-1.773437 5.953125-6.519531 4.191406-10.597656-39.125-90.101563-3.417969-194.234375 79.140625-242.914063 132.929687-78.433593 297.332031 24.460938 290.96875 173.171876-6.871094-1.933594-13.882813-3.375-20.964844-4.320313.238281-20.429687-2.894531-40.304687-9.925781-60.101563-1.398438-3.925781-5.722656-5.984374-9.652344-4.59375-3.9375 1.402344-5.992187 5.722657-4.59375 9.652344 8.507813 23.933594 8.554688 42.207032 8.886719 44.90625h-61.519531c-.453125-2.042968-1.847656-32.90625-22.617188-76.621094v-.003906c14.171875-6.597656 27.472656-15.160156 39.527344-25.53125 1.460938 1.675782 12.382812 12 22.867188 29.746094 2.125 3.597656 6.761718 4.785156 10.355468 2.667969 3.589844-2.125 4.789063-6.757813 2.660156-10.355469-63.960937-108.234375-219.453124-112.683594-289.921874-9.351562-54.03125 79.21875-32.703126 186.003906 44.976562 238.984374 28.730469 19.597657 62.597656 30.394532 99.761719 29.984376.949219 7.09375 2.398437 14.105468 4.355469 20.976562-67.335938 2.644531-132.441407-30.246094-169.96875-89.296875-2.386719-3.757813-7.375-4.867187-11.132813-2.476563-3.757813 2.386719-4.867187 7.363282-2.480469 11.121094 41.53125 65.320313 114.757813 101.0625 189.0625 96.53125 27.484375 67.503906 99.246094 105.265625 169.898438 90.707032 4.089844-.835938 6.71875-4.835938 5.871094-8.929688-.835938-4.078125-4.835938-6.707031-8.914063-5.871094-121.195313 24.894532-208.640625-112.132812-137.871094-211.488281 55.046875-76.984375 174.027344-76.796875 225.988281 7.675781 42.480469 69.113282 15.609376 161.304688-60.914062 195.117188-3.820312 1.683594-5.554688 6.144531-3.871094 9.964844 1.695313 3.816406 6.148438 5.550781 9.964844 3.859374 55.140625-24.332031 90.042969-78.503906 90.042969-138.070312 0-61.164062-37.304688-116.476562-93.992188-139.453125zm-236.203125-166.773437c-14.1875 17.175781-27.570312 36.804687-38.296875 56.773437-12.5625-5.800781-24.378906-13.28125-35.140625-22.324219 34.636719-29.25 69.707032-33.285156 73.4375-34.449218zm-129.273437 146.886718c3.140625-64.417968 44.617187-101.957031 44.699219-102.078125 12.03125 10.339844 25.304687 18.875 39.445312 25.457031-10.480469 22.058594-19.609375 48.339844-22.613281 76.621094zm0 15.113282h60.546875c-.671875 28.035156 5.273437 54.601562 17.71875 79.496093-1.941406 1.144531-16.679688 8.050781-33.582032 22.585938-27.808593-28.308594-42.925781-65.070313-44.683593-102.082031zm55.886719 112.417968c14.015624-11.804687 24.625-16.734375 29.707031-19.695312 11.859375 19.472656 27.894531 37.789062 48.054687 54.859375-3.34375-1.003907-40.964844-4.289063-77.761718-35.164063zm93.230468 28.324219c-21-16.863281-37.550781-34.992187-49.585937-54.285156 15.71875-6.140625 32.4375-9.734375 49.585937-10.550781zm0-79.957031c-19.769531.855468-39.039062 5.074218-57.070312 12.386718-11.605469-23.019531-17.054688-47.355468-16.382813-73.171874h73.457031v60.785156zm0-75.898438h-72.394531c3-26.054687 11.609375-50.375 21.410156-70.84375 16.25 5.878906 33.414063 9.300782 50.984375 10.066406zm0-75.902344c-15.148437-.722656-29.957031-3.617187-44.039062-8.519531 12.253906-22.5 28.304687-44.847656 44.039062-62.324219zm108.449219-36.582031c-10.773437 9.066407-22.609375 16.558594-35.1875 22.367188-9.941406-18.535157-23.210937-38.484375-38.285156-56.746094 44.226562 7.925781 69.695312 31.96875 73.472656 34.378906zm-93.335937-34.246093c16.84375 19.667968 30.335937 37.355468 43.976562 62.332031-14.0625 4.886719-28.851562 7.773437-43.976562 8.496093zm0 85.953124c17.558593-.765624 34.710937-4.183593 50.953124-10.054687 2.335938 5.703125 17.253907 33.988281 21.472657 70.832031l-72.425781.003906zm0 177.816407v-26.019531c1.449218.09375 4.640624.203124 9.917968.785156-6.207031 12.367187-8.46875 20.996094-9.917968 25.234375zm73.34375-90.332031c-23.164063 12.484374-41.886719 30.164062-55.304688 50.910156-9.484375-1.414063-15.785156-1.566406-18.039062-1.722656v-60.78125h73.472656c.101562 3.839843.0625 7.707031-.128906 11.59375zm15.292968-7.132813c0-1.488281-.011718-2.96875-.050781-4.460937h12.796875c-4.308594 1.289062-8.566406 2.78125-12.746094 4.460937zm0 0"/><path d="m427.570312 456.496094c25.777344 0 41.167969-14.359375 41.167969-38.414063v-33.957031c0-24.054688-15.390625-38.414062-41.167969-38.414062-25.777343 0-41.167968 14.359374-41.167968 38.414062v33.957031c0 24.054688 15.390625 38.414063 41.167968 38.414063zm-26.054687-72.371094c0-15.679688 8.523437-23.300781 26.054687-23.300781s26.054688 7.621093 26.054688 23.300781v33.957031c0 15.679688-8.523438 23.300781-26.054688 23.300781s-26.054687-7.621093-26.054687-23.300781zm0 0"/><path d="m427.570312 436.539062c12.132813 0 19.375-6.898437 19.375-18.457031v-33.957031c0-11.558594-7.242187-18.457031-19.375-18.457031-12.167968 0-19.144531 6.726562-19.144531 18.457031v33.957031c0 11.730469 6.976563 18.457031 19.144531 18.457031zm-4.03125-52.414062c0-2.128906.410157-2.773438.402344-2.773438.023438-.015624.8125-.574218 3.628906-.574218 4.261719 0 4.261719.511718 4.261719 3.347656v33.957031c0 2.832031 0 3.34375-4.261719 3.34375-2.800781 0-3.597656-.550781-3.605468-.550781-.011719-.019531-.425782-.65625-.425782-2.792969zm0 0"/><path d="m296.015625 287.65625c-12.167969 0-19.148437 6.726562-19.148437 18.457031v33.957031c0 11.730469 6.980468 18.457032 19.148437 18.457032 12.128906 0 19.375-6.898438 19.375-18.457032v-33.957031c0-11.558593-7.246094-18.457031-19.375-18.457031zm4.261719 52.414062c0 2.835938 0 3.347657-4.261719 3.347657-2.800781 0-3.597656-.554688-3.605469-.554688-.933594-1.398437-.121094-9.703125-.429687-36.75 0-2.128906.414062-2.769531.40625-2.769531.023437-.019531.8125-.578125 3.628906-.578125 4.261719 0 4.261719.511719 4.261719 3.347656zm0 0"/><path d="m337.183594 306.113281c0-24.054687-15.390625-38.414062-41.167969-38.414062s-41.167969 14.359375-41.167969 38.414062v33.957031c0 24.054688 15.390625 38.414063 41.167969 38.414063s41.167969-14.359375 41.167969-38.414063zm-15.113282 33.957031c0 15.679688-8.523437 23.300782-26.054687 23.300782s-26.054687-7.621094-26.054687-23.300782v-33.957031c0-15.679687 8.523437-23.300781 26.054687-23.300781s26.054687 7.621094 26.054687 23.300781zm0 0"/><path d="m320.492188 463.839844c7.242187 0 13.882812-3.925782 16.914062-9.984375l69.4375-138.503907c1.871094-3.730468.363281-8.269531-3.367188-10.140624-3.734374-1.871094-8.273437-.359376-10.140624 3.367187l-69.445313 138.511719c-.40625.8125-1.703125 1.636718-3.398437 1.636718-2.679688 0-4.027344-2.289062-4.027344-3.570312 0-.734375 83.875-168.316406 84.675781-170.035156 1.34375-2.871094 8.609375-.570313 6.851563 4.226562l-1.109376 2.210938c-1.871093 3.730468-.363281 8.273437 3.367188 10.144531 3.730469 1.867187 8.273438.359375 10.140625-3.371094 1.09375-2.183593 1.355469-2.671875 1.570313-3.210937 9.152343-22.851563-24.785157-36.90625-34.46875-16.492188-89.8125 180.953125-86.140626 169.46875-86.140626 176.527344 0 9.023438 7.691407 18.683594 19.140626 18.683594zm0 0"/></svg>